# 3ds Max Wavefront OBJ Exporter v0.97b - (c)2007 guruware
# File Created: 09.12.2017 15:45:42

mtllib tree2.mtl

#
# object Model
#

#
# object skp3F92_1
#

#
# object Mesh01
#

v  86.2417 371.4981 -52.9203
v  109.8698 7.0003 -76.5484
v  89.5524 7.0176 -86.5345
v  117.9703 6.9845 -62.5450
v  117.8677 7.1168 -39.8203
v  99.0293 6.9966 -22.0482
v  76.4371 7.0318 -20.5990
v  58.4587 7.0112 -34.3563
v  52.8257 6.9933 -52.9203
v  62.0372 7.1317 -77.1248
# 10 vertices

vn 0.4356 0.1577 -0.8862
vn 0.8544 0.1609 -0.4941
vn 0.9874 0.1580 0.0040
vn 0.6776 0.1558 0.7188
vn 0.0633 0.1577 0.9854
vn -0.6002 0.1577 0.7842
vn -0.9447 0.1594 0.2866
vn 0.0000 -1.0000 0.0005
vn -0.0002 -1.0000 0.0001
vn 0.0065 -1.0000 0.0032
vn -0.0007 -1.0000 0.0018
vn -0.0002 -1.0000 -0.0006
vn -0.0002 -1.0000 -0.0005
vn -0.0038 -1.0000 -0.0046
vn -0.9233 0.1558 -0.3509
vn -0.3194 0.1534 -0.9351
# 16 vertex normals

vt 0.0000 76.8346 0.0000
vt -4.2444 -2.1026 0.0000
vt 4.6686 -2.0989 0.0000
vt 3.3954 -2.1836 0.0000
vt 0.0000 76.7946 0.0000
vt -2.9737 -2.1871 0.0000
vt 3.8393 -2.1134 0.0000
vt 0.0000 76.8310 0.0000
vt -5.1075 -2.0847 0.0000
vt 0.0000 76.8582 0.0000
vt -4.6736 -2.0555 0.0000
vt 5.5226 -2.0295 0.0000
vt -0.0000 76.8346 0.0000
vt -4.6684 -2.0958 0.0000
vt 4.2444 -2.1034 0.0000
vt -4.2443 -2.1002 0.0000
vt 4.6684 -2.0958 0.0000
vt -3.8190 -2.1470 0.0000
vt 3.8188 -2.1431 0.0000
vt 0.0000 76.8134 0.0000
vt -12.4916 3.7894 0.0000
vt 10.9382 -7.3086 0.0000
vt 13.1559 0.0001 0.0000
vt -12.4916 3.7893 0.0000
vt -5.0345 -12.1543 0.0000
vt 10.9381 -7.3086 0.0000
vt 8.9212 9.5281 0.0000
vt 0.8784 13.4472 0.0000
vt -8.6764 9.8878 0.0000
vt 9.2990 9.3058 0.0000
vt 1.2983 13.2337 0.0000
vt -7.3128 10.9351 0.0000
vt -1.3035 13.2339 0.0000
vt -12.4916 3.7892 0.0000
vt 13.1559 -0.0001 0.0000
vt -9.3025 9.3024 0.0000
vt -9.4895 9.3150 0.0000
vt 10.0922 8.4385 0.0000
vt 1.1971 13.4223 0.0000
vt -5.5224 -2.0263 0.0000
vt 4.6737 -2.0563 0.0000
vt 0.0000 76.8876 0.0000
vt -5.5116 -1.9915 0.0000
vt 5.9371 -1.9668 0.0000
# 44 texture coords

g Mesh01
usemtl _auto_
s off
f 1/1/1 2/2/1 3/3/1 
f 2/4/2 1/5/2 4/6/2 
f 4/7/3 1/8/3 5/9/3 
f 1/10/4 6/11/4 5/12/4 
f 1/13/5 7/14/5 6/15/5 
f 1/1/6 8/16/6 7/17/6 
f 9/18/7 8/19/7 1/20/7 
f 4/21/8 8/22/8 9/23/8 
f 4/24/9 6/25/9 8/26/9 
f 4/27/10 5/28/10 6/29/10 
f 6/30/11 7/31/11 8/32/11 
f 3/33/12 4/34/12 9/35/12 
f 4/34/13 3/33/13 2/36/13 
f 3/37/14 9/38/14 10/39/14 
f 10/40/15 9/41/15 1/10/15 
f 1/42/16 3/43/16 10/44/16 
# 16 faces

